<svg xmlns="http://www.w3.org/2000/svg" width="39.906" height="39.906" viewBox="0 0 39.906 39.906">
	<path d="M5.846,39.906H34.061a5.852,5.852,0,0,0,5.846-5.846V5.846A5.852,5.852,0,0,0,34.061,0H5.846A5.852,5.852,0,0,0,0,5.846V34.061A5.852,5.852,0,0,0,5.846,39.906ZM2.338,5.846A3.511,3.511,0,0,1,5.846,2.338H34.061a3.511,3.511,0,0,1,3.507,3.507V34.061a3.511,3.511,0,0,1-3.507,3.507H5.846a3.511,3.511,0,0,1-3.507-3.507Z" fill="#fff"/>

	<path d="M131.522,142.044A10.522,10.522,0,1,0,121,131.522,10.534,10.534,0,0,0,131.522,142.044Zm0-18.706a8.184,8.184,0,1,1-8.184,8.184A8.193,8.193,0,0,1,131.522,123.338Z" transform="translate(-111.569 -111.569)" fill="#fff"/>

	<path d="M364.507,68.015A3.507,3.507,0,1,0,361,64.507,3.511,3.511,0,0,0,364.507,68.015Zm0-4.677a1.169,1.169,0,1,1-1.169,1.169A1.171,1.171,0,0,1,364.507,63.338Z" transform="translate(-332.863 -56.246)" fill="#fff"/>
</svg>